# AST/ASF file generated using VICON BodyLanguage
# -----------------------------------------------
:version 1.10
:name VICON
:units
  mass 1.0
  length 0.45
  angle deg
:documentation
   .ast/.asf automatically generated from VICON data using
   VICON BodyBuilder and BodyLanguage model FoxedUp or BRILLIANT.MOD
:root
   order TX TY TZ RX RY RZ
   axis XYZ
   position 0 0 0  
   orientation 0 0 0 
:bonedata
  begin
     id 1 
     name lhipjoint
     direction 0.710188 -0.616876 0.339259 
     length 2.5669 
     axis 0 0 0  XYZ
  end
  begin
     id 2 
     name lfemur
     direction 0.34202 -0.939693 0  
     length 7.12796  
     axis 0 0 20  XYZ
    dof rx ry rz
    limits (-160.0 20.0)
           (-70.0 70.0)
           (-60.0 70.0)
  end
  begin
     id 3 
     name ltibia
     direction 0.34202 -0.939693 0   
     length 7.58108   
     axis 0 0 20   XYZ
    dof rx
    limits (-10.0 170.0)
  end
  begin
     id 4 
     name lfoot
     direction 0.0669471 -0.183936 0.980656   
     length 2.17365   
     axis -90 7.62852e-016 20   XYZ
    dof rx rz
    limits (-45.0 90.0)
           (-70.0 20.0)
  end
  begin
     id 5 
     name ltoes
     direction 1.53508e-011 -4.21705e-011 1   
     length 1.09427   
     axis -90 7.62852e-016 20   XYZ
    dof rx
    limits (-90.0 20.0)
  end
  begin
     id 6 
     name rhipjoint
     direction -0.700191 -0.625589 0.34405   
     length 2.53115  
     axis 0 0 0  XYZ 
  end
  begin
     id 7 
     name rfemur
     direction -0.34202 -0.939693 0   
     length 7.33006   
     axis 0 0 -20   XYZ
    dof rx ry rz
    limits (-160.0 20.0)
           (-70.0 70.0)
           (-70.0 60.0)
  end
  begin
     id 8 
     name rtibia
     direction -0.34202 -0.939693 0   
     length 7.64926   
     axis 0 0 -20   XYZ
    dof rx
    limits (-10.0 170.0)
 end
 begin
     id 9 
     name rfoot
     direction -0.0688927 -0.189281 0.979503   
     length 2.20493  
     axis -90 -7.62852e-016 -20   XYZ
    dof rx rz
    limits (-45.0 90.0)
           (-20.0 70.0)
  end
  begin
     id 10 
     name rtoes
     direction -1.53567e-011 -4.21933e-011 1   
     length 1.10919   
     axis -90 -7.62852e-016 -20   XYZ
    dof rx
    limits (-90.0 20.0)
  end
  begin
     id 11 
     name lowerback
     direction -0.0167868 0.989873 -0.140959   
     length 2.14596   
     axis 0 0 0   XYZ
    dof rx ry rz
    limits (-20.0 45.0)
           (-30.0 30.0)
           (-30.0 30.0)
  end
  begin
     id 12 
     name upperback
     direction 0.0129109 0.998033 0.0613525   
     length 2.10457   
     axis 0 0 0   XYZ
    dof rx ry rz
    limits (-20.0 45.0)
           (-30.0 30.0)
           (-30.0 30.0)
  end
  begin
     id 13 
     name thorax
     direction 0.0177047 0.991119 0.131797   
     length 2.17652   
     axis 0 0 0   XYZ
    dof rx ry rz
    limits (-20.0 45.0)
           (-30.0 30.0)
           (-30.0 30.0)
  end
  begin
     id 14 
     name lowerneck
     direction -0.0336893 0.997548 0.0613464   
     length 1.8912   
     axis 0 0 0   XYZ
    dof rx ry rz
    limits (-20.0 45.0)
           (-30.0 30.0)
           (-30.0 30.0)
  end
  begin
     id 15 
     name upperneck
     direction 0.0435909 0.997179 -0.0611028   
     length 1.8829   
     axis 0 0 0   XYZ
    dof rx ry rz
    limits (-20.0 45.0)
           (-30.0 30.0)
           (-30.0 30.0)
  end
  begin
     id 16
     name head
     direction 0.0175076 0.999444 -0.0283782  
     length 1.93197  
     axis 0 0 0   XYZ
    dof rx ry rz
    limits (-20.0 45.0)
           (-30.0 30.0)
           (-30.0 30.0)
  end
  begin
     id 17 
     name lclavicle
     direction 0.919164 0.389875 0.0559876  
     length 3.60004  
     axis 0 0 0   XYZ
    dof ry rz
    limits (-20.0 10.0)
           (0.0 20.0)
  end
  begin
     id 18 
     name lhumerus
     direction 1 -4.48958e-011 6.89191e-027   
     length 5.43301   
     axis 180 -30 -90   XYZ
    dof rx ry rz
    limits (-60.0 90.0)
           (-90.0 90.0)
           (-90.0 90.0)
  end
  begin
     id 19
     name lradius
     direction 1 -4.4897e-011 3.24727e-027   
     length 3.15936   
     axis 180 -30 -90   XYZ
    dof rx
    limits (-10.0 170.0)
  end
  begin
     id 20
     name lwrist
     direction 1 -4.4897e-011 9.00228e-027   
     length 1.57968   
     axis -6.29373e-015 90 90   XYZ
    dof ry
    limits (-180.0 0.0)
 end
  begin
     id 21 
     name lhand
     direction 1 -4.48968e-011 1.80042e-026   
     length 0.712827   
     axis -1.14882e-014 90 90   XYZ
    dof rx rz
    limits (-90.0 90.0)
           (-45.0 45.0)
  end
  begin
     id 22 
     name lfingers
     direction 1 -4.49019e-011 3.60267e-026   
     length 0.574699   
     axis -2.29769e-014 90 90   XYZ
    dof rx
    limits (0.0 90.0)
  end
  begin
     id 23
     name lthumb
     direction 0.707107 -6.3498e-011 0.707107   
     length 0.825157   
     axis -90 45 5.37419e-014   XYZ
    dof rx rz
    limits (-45.0 45.0)
           (-45.0 45.0)
  end
  begin
     id 24 
     name rclavicle
     direction -0.890334 0.455305 -0.00132111   
     length 3.51494  
     axis 0 0 0   XYZ 
    dof ry rz
    limits (-10.0 20.0)
           (-20.0 0.0)
  end
  begin
     id 25 
     name rhumerus
     direction -1 -4.48967e-011 5.07175e-028  
     length 5.34194   
     axis 180 30 90   XYZ
    dof rx ry rz
    limits (-90.0 60.0)
           (-90.0 90.0)
           (-90.0 90.0)
  end
  begin
     id 26 
     name rradius
     direction -1 -4.48955e-011 3.30467e-027   
     length 3.19351   
     axis 180 30 90   XYZ
    dof rx
    limits (-10.0 170.0)
  end
  begin
     id 27 
     name rwrist
     direction -1 -4.48968e-011 9.00208e-027   
     length 1.59676   
     axis -6.29373e-015 -90 -90   XYZ
    dof ry
    limits (-180.0 0.0)
  end
  begin
     id 28
     name rhand
     direction -1 -4.49e-011 1.80099e-026   
     length 0.743862   
     axis -1.14882e-014 -90 -90   XYZ
    dof rx rz
    limits (-90.0 90.0)
           (-45.0 45.0)
  end
  begin
     id 29
     name rfingers
     direction -1 -4.49009e-011 3.6023e-026   
     length 0.599721   
     axis -2.29769e-014 -90 -90   XYZ
    dof rx
    limits (0.0 90.0)
  end
  begin
     id 30
     name rthumb
     direction -0.707107 -6.35025e-011 0.707107   
     length 0.861083   
     axis -90 -45 -5.37419e-014   XYZ
    dof rx rz
    limits (-45.0 45.0)
           (-45.0 45.0)
  end
:hierarchy
  begin
    root lhipjoint rhipjoint lowerback
    lhipjoint lfemur
    lfemur ltibia
    ltibia lfoot
    lfoot ltoes
    rhipjoint rfemur
    rfemur rtibia
    rtibia rfoot
    rfoot rtoes
    lowerback upperback
    upperback thorax
    thorax lowerneck lclavicle rclavicle
    lowerneck upperneck
    upperneck head
    lclavicle lhumerus
    lhumerus lradius
    lradius lwrist
    lwrist lhand lthumb
    lhand lfingers
    rclavicle rhumerus
    rhumerus rradius
    rradius rwrist
    rwrist rhand rthumb
    rhand rfingers
  end

#!OML:ASF H:\Martial Arts Walks\Project 1\Capture day 1\Session 1\male.ASF
:FULLY-SPECIFIED
:DEGREES
108
root -0.803023 11.4974 11.2907 9.0101 1.48263 -1.68248
lowerback 18.9314 1.61265 -2.45219
upperback -3.52068 1.71682 1.07493
thorax -14.8349 1.06134 2.08084
lowerneck -7.82682 -3.21455 -5.75755
upperneck 4.5637 -4.04376 5.39472
head 3.14957 -1.92221 2.60648
rclavicle 2.18415e-014 1.30204e-014
rhumerus 39.5119 -2.55365 -63.4831
rradius 94.2694
rwrist 20.9429
rhand 1.42308 -14.0579
rfingers 7.12502
rthumb 26.9527 -42.1557
lclavicle 2.18415e-014 1.30204e-014
lhumerus 42.0015 -4.72551 87.0316
lradius 87.8386
lwrist -35.7289
lhand -10.8264 2.02255
lfingers 7.12502
lthumb 15.1877 31.4451
rfemur -73.1012 -5.31444 21.063
rtibia 108.12
rfoot -33.3412 -17.6642
rtoes -13.1589
lfemur -73.6714 11.3569 -18.3043
ltibia 107.199
lfoot -31.4306 16.8214
ltoes -13.6079
109
root -0.803563 11.4963 11.2894 9.00803 1.47019 -1.67123
lowerback 18.9468 1.61436 -2.45571
upperback -3.52211 1.7178 1.07432
thorax -14.8461 1.06217 2.08163
lowerneck -7.86083 -3.22172 -5.75489
upperneck 4.62469 -4.05289 5.37979
head 3.17708 -1.9268 2.60048
rclavicle -2.5637e-014 -1.59028e-015
rhumerus 39.5297 -2.54809 -63.4882
rradius 94.2605
rwrist 20.9452
rhand 1.41381 -14.0589
rfingers 7.12502
rthumb 26.9438 -42.158
lclavicle -2.5637e-014 -1.59028e-015
lhumerus 42.0192 -4.72036 87.0192
lradius 87.8471
lwrist -35.7233
lhand -10.8457 2.03895
lfingers 7.12502
lthumb 15.1691 31.463
rfemur -73.1144 -5.32178 21.0589
rtibia 108.131
rfoot -33.3325 -17.6704
rtoes -13.1983
lfemur -73.6786 11.3866 -18.3191
ltibia 107.204
lfoot -31.4366 16.797
ltoes -13.5959
110
root -0.80408 11.4953 11.2882 9.00504 1.45908 -1.66345
lowerback 18.9612 1.61619 -2.4541
upperback -3.52358 1.72037 1.07464
thorax -14.8567 1.06332 2.08006
lowerneck -7.89303 -3.22968 -5.75374
upperneck 4.68815 -4.06304 5.36409
head 3.20521 -1.93199 2.59447
rclavicle -2.05121e-014 -6.55989e-015
rhumerus 39.5467 -2.54307 -63.4877
rradius 94.2532
rwrist 20.9446
rhand 1.40524 -14.0555
rfingers 7.12502
rthumb 26.9356 -42.1558
lclavicle -2.05121e-014 -6.55989e-015
lhumerus 42.0364 -4.71737 87.0095
lradius 87.8562
lwrist -35.7218
lhand -10.8594 2.06268
lfingers 7.12502
lthumb 15.1559 31.4877
rfemur -73.1252 -5.33193 21.0587
rtibia 108.139
rfoot -33.3242 -17.6717
rtoes -13.2394
lfemur -73.6848 11.4172 -18.3307
ltibia 107.209
lfoot -31.4414 16.7748
ltoes -13.5854
111
root -0.804467 11.4943 11.2872 9.00163 1.44831 -1.65788
lowerback 18.9737 1.61751 -2.44902
upperback -3.52434 1.72326 1.07575
thorax -14.8652 1.06433 2.07734
lowerneck -7.92711 -3.23681 -5.75063
upperneck 4.75407 -4.07203 5.34541
head 3.23433 -1.93666 2.58712
rclavicle 2.57985e-014 2.5842e-015
rhumerus 39.5671 -2.53706 -63.4825
rradius 94.244
rwrist 20.9424
rhand 1.39473 -14.0473
rfingers 7.12502
rthumb 26.9256 -42.1492
lclavicle 2.57985e-014 2.5842e-015
lhumerus 42.0537 -4.71406 87.0021
lradius 87.8653
lwrist -35.7248
lhand -10.868 2.08894
lfingers 7.12502
lthumb 15.1477 31.5146
rfemur -73.1347 -5.34369 21.0593
rtibia 108.145
rfoot -33.3192 -17.6622
rtoes -13.2648
lfemur -73.6892 11.4473 -18.3413
ltibia 107.214
lfoot -31.4444 16.7593
ltoes -13.5786
112
root -0.80469 11.4935 11.2859 9.0027 1.43087 -1.65702
lowerback 18.9822 1.62026 -2.44127
upperback -3.52611 1.72906 1.07857
thorax -14.8726 1.06654 2.07416
lowerneck -7.96437 -3.24259 -5.74654
upperneck 4.82361 -4.0791 5.32456
head 3.26511 -1.9404 2.57897
rclavicle 6.33005e-015 9.93923e-016
rhumerus 39.5895 -2.5286 -63.4745
rradius 94.2354
rwrist 20.9361
rhand 1.38805 -14.0412
rfingers 7.12502
rthumb 26.9192 -42.1441
lclavicle 6.33005e-015 9.93923e-016
lhumerus 42.0711 -4.70876 86.9982
lradius 87.8708
lwrist -35.7305
lhand -10.8792 2.10959
lfingers 7.12502
lthumb 15.1368 31.536
rfemur -73.1516 -5.34591 21.0621
rtibia 108.148
rfoot -33.312 -17.6429
rtoes -13.2717
lfemur -73.7012 11.4837 -18.3502
ltibia 107.221
lfoot -31.4482 16.7399
ltoes -13.539
113
root -0.804789 11.4927 11.2846 9.007 1.40953 -1.65751
lowerback 18.987 1.62443 -2.43334
upperback -3.52849 1.737 1.08203
thorax -14.8787 1.06976 2.07098
lowerneck -8.0011 -3.24701 -5.74531
upperneck 4.89299 -4.08437 5.30811
head 3.29592 -1.94316 2.57297
rclavicle -1.01815e-014 -3.97569e-015
rhumerus 39.6125 -2.52021 -63.4634
rradius 94.2269
rwrist 20.9271
rhand 1.37918 -14.0363
rfingers 7.12502
rthumb 26.9107 -42.1404
lclavicle -1.01815e-014 -3.97569e-015
lhumerus 42.0887 -4.70408 86.9982
lradius 87.8745
lwrist -35.7328
lhand -10.8857 2.12442
lfingers 7.12502
lthumb 15.1306 31.5513
rfemur -73.1726 -5.34267 21.0648
rtibia 108.151
rfoot -33.3025 -17.6254
rtoes -13.2798
lfemur -73.716 11.5214 -18.3592
ltibia 107.229
lfoot -31.4525 16.7247
ltoes -13.5026
114
root -0.804948 11.4918 11.2834 9.01348 1.39036 -1.66335
lowerback 18.9885 1.62764 -2.42251
upperback -3.53076 1.74484 1.08827
thorax -14.8826 1.07282 2.06938
lowerneck -8.04 -3.25028 -5.74463
upperneck 4.96475 -4.08812 5.29353
head 3.32799 -1.94509 2.56781
rclavicle -1.63376e-014 2.03754e-015
rhumerus 39.636 -2.51224 -63.4497
rradius 94.2201
rwrist 20.9144
rhand 1.36864 -14.0355
rfingers 7.12502
rthumb 26.9006 -42.1413
lclavicle -1.63376e-014 2.03754e-015
lhumerus 42.108 -4.69848 87.0015
lradius 87.8738
lwrist -35.7292
lhand -10.8851 2.13336
lfingers 7.12502
lthumb 15.1311 31.5602
rfemur -73.195 -5.33863 21.0735
rtibia 108.151
rfoot -33.2951 -17.6057
rtoes -13.289
lfemur -73.7344 11.5569 -18.3614
ltibia 107.238
lfoot -31.4589 16.7073
ltoes -13.467
115
root -0.80521 11.4912 11.2822 9.01995 1.3788 -1.66807
lowerback 18.9895 1.62845 -2.41315
upperback -3.53225 1.74921 1.09517
thorax -14.8852 1.07445 2.07049
lowerneck -8.08002 -3.25295 -5.74543
upperneck 5.03802 -4.09115 5.2829
head 3.361 -1.94655 2.56433
rclavicle -2.72335e-014 -6.65929e-015
rhumerus 39.6576 -2.50497 -63.434
rradius 94.2117
rwrist 20.8992
rhand 1.34615 -14.0334
rfingers 7.12502
rthumb 26.8791 -42.1425
lclavicle -2.72335e-014 -6.65929e-015
lhumerus 42.1285 -4.69326 87.0054
lradius 87.8687
lwrist -35.7225
lhand -10.8898 2.13524
lfingers 7.12502
lthumb 15.1266 31.5624
rfemur -73.2117 -5.34109 21.0831
rtibia 108.153
rfoot -33.2935 -17.593
rtoes -13.2994
lfemur -73.7507 11.5803 -18.3619
ltibia 107.245
lfoot -31.4636 16.6963
ltoes -13.4445
116
root -0.805799 11.4909 11.281 9.02651 1.3802 -1.67277
lowerback 18.9908 1.62508 -2.40455
upperback -3.53344 1.74793 1.10323
thorax -14.8873 1.07365 2.07516
lowerneck -8.12184 -3.25647 -5.74605
upperneck 5.11498 -4.09553 5.27439
head 3.39585 -1.94857 2.56149
rclavicle 9.93923e-017 6.06293e-015
rhumerus 39.6759 -2.49861 -63.4183
rradius 94.2055
rwrist 20.883
rhand 1.31736 -14.0314
rfingers 7.12502
rthumb 26.8516 -42.1447
lclavicle 9.93923e-017 6.06293e-015
lhumerus 42.1496 -4.68914 87.0076
lradius 87.8637
lwrist -35.7113
lhand -10.8868 2.13732
lfingers 7.12502
lthumb 15.1295 31.5643
rfemur -73.2241 -5.35484 21.0961
rtibia 108.155
rfoot -33.2968 -17.5826
rtoes -13.3176
lfemur -73.7667 11.5882 -18.358
ltibia 107.249
lfoot -31.4651 16.6886
ltoes -13.4487
117
root -0.806609 11.4902 11.28 9.03225 1.39127 -1.67369
lowerback 18.9936 1.61794 -2.40095
upperback -3.53306 1.74034 1.11135
thorax -14.8883 1.07039 2.08473
lowerneck -8.169 -3.25877 -5.74756
upperneck 5.19598 -4.09829 5.26967
head 3.43325 -1.9496 2.56023
rclavicle -2.54693e-015 -4.47266e-016
rhumerus 39.6939 -2.49137 -63.4048
rradius 94.198
rwrist 20.8724
rhand 1.27798 -14.0264
rfingers 7.12502
rthumb 26.8139 -42.1455
lclavicle -2.54693e-015 -4.47266e-016
lhumerus 42.1726 -4.68346 87.0054
lradius 87.858
lwrist -35.6989
lhand -10.8844 2.13367
lfingers 7.12502
lthumb 15.1319 31.5605
rfemur -73.2379 -5.37573 21.1061
rtibia 108.162
rfoot -33.3051 -17.5696
rtoes -13.3169
lfemur -73.7849 11.5825 -18.3548
ltibia 107.255
lfoot -31.4596 16.6889
ltoes -13.4652
118
root -0.807658 11.4894 11.2791 9.03755 1.40873 -1.6726
lowerback 18.9961 1.60899 -2.39943
upperback -3.53141 1.7296 1.118
thorax -14.8873 1.06576 2.09482
lowerneck -8.22147 -3.26317 -5.74707
upperneck 5.28217 -4.10412 5.26642
head 3.47374 -1.95198 2.55891
rclavicle -7.35503e-015 2.73329e-015
rhumerus 39.7073 -2.48702 -63.394
rradius 94.193
rwrist 20.8662
rhand 1.23957 -14.022
rfingers 7.12502
rthumb 26.7771 -42.1467
lclavicle -7.35503e-015 2.73329e-015
lhumerus 42.1977 -4.68197 86.9977
lradius 87.8522
lwrist -35.6871
lhand -10.8835 2.13001
lfingers 7.12502
lthumb 15.1327 31.5568
rfemur -73.2511 -5.40058 21.1153
rtibia 108.171
rfoot -33.3155 -17.558
rtoes -13.3181
lfemur -73.8032 11.5668 -18.35
ltibia 107.259
lfoot -31.4513 16.6889
ltoes -13.4877
119
root -0.808768 11.4885 11.2782 9.04567 1.42826 -1.66831
lowerback 18.996 1.59892 -2.40064
upperback -3.53035 1.71646 1.12264
thorax -14.8854 1.06015 2.10497
lowerneck -8.27782 -3.26758 -5.74461
upperneck 5.37367 -4.11018 5.26353
head 3.51686 -1.95438 2.55736
rclavicle -1.15792e-014 -1.49089e-016
rhumerus 39.7176 -2.48349 -63.3858
rradius 94.1884
rwrist 20.8663
rhand 1.20659 -14.0186
rfingers 7.12502
rthumb 26.7456 -42.1481
lclavicle -1.15792e-014 -1.49089e-016
lhumerus 42.2213 -4.68291 86.9852
lradius 87.8472
lwrist -35.6827
lhand -10.8864 2.12225
lfingers 7.12502
lthumb 15.1299 31.5492
rfemur -73.2697 -5.42639 21.1216
rtibia 108.182
rfoot -33.3228 -17.549
rtoes -13.3108
lfemur -73.8252 11.5433 -18.3474
ltibia 107.264
lfoot -31.4386 16.6917
ltoes -13.5026
